<svg xmlns="http://www.w3.org/2000/svg" viewBox="0 0 1024 1024" role="img" aria-label="Credit coin">
  <defs>
    <radialGradient id="coinFace" cx="42%" cy="32%" r="68%">
      <stop offset="0" stop-color="#fff78d"/>
      <stop offset="0.22" stop-color="#ffe657"/>
      <stop offset="0.5" stop-color="#ffc51f"/>
      <stop offset="0.78" stop-color="#d88708"/>
      <stop offset="1" stop-color="#7b3300"/>
    </radialGradient>
    <linearGradient id="shine" x1="0.18" x2="0.92" y1="0.06" y2="0.76">
      <stop offset="0" stop-color="#fff9bd" stop-opacity="0.95"/>
      <stop offset="0.22" stop-color="#fff9bd" stop-opacity="0.42"/>
      <stop offset="0.5" stop-color="#fff9bd" stop-opacity="0.05"/>
      <stop offset="1" stop-color="#fff9bd" stop-opacity="0"/>
    </linearGradient>
    <filter id="softShadow" x="-20%" y="-20%" width="140%" height="150%">
      <feDropShadow dx="0" dy="22" stdDeviation="20" flood-color="#210c00" flood-opacity="0.55"/>
    </filter>
  </defs>

  <g filter="url(#softShadow)">
    <circle cx="512" cy="508" r="380" fill="url(#coinFace)" stroke="#743000" stroke-width="22"/>
    <circle cx="512" cy="508" r="326" fill="none" stroke="#fff27c" stroke-width="24" opacity="0.82"/>
    <circle cx="512" cy="508" r="278" fill="none" stroke="#7b3300" stroke-width="16" opacity="0.78"/>
    <circle cx="512" cy="508" r="214" fill="none" stroke="#fff6a8" stroke-width="13" opacity="0.6"/>

    <path d="M243 344c66-112 178-181 306-185 91-3 171 24 239 75l-29 60c-61-41-132-60-211-55-112 7-209 70-264 166z" fill="url(#shine)" opacity="0.86"/>
    <path d="M275 231c64-46 143-74 236-74 84 0 160 25 226 67l-40 75c-62-34-126-50-191-45-79 6-147 35-204 86z" fill="#fff7a5" opacity="0.36"/>

    <path d="M279 190l18 52 51 18-51 18-18 52-18-52-51-18 51-18z" fill="#fffdf0"/>
    <path d="M221 638l14 41 41 14-41 14-14 41-14-41-41-14 41-14z" fill="#fffdf0"/>

    <g opacity="0.52" stroke="#7b3300" stroke-linecap="round" stroke-width="9">
      <path d="M235 401a306 306 0 0 1 118-134"/>
      <path d="M669 249a306 306 0 0 1 113 91"/>
      <path d="M803 582a306 306 0 0 1-76 135"/>
      <path d="M356 754a306 306 0 0 1-119-129"/>
    </g>

    <path d="M670 365c-41-45-91-68-150-68-120 0-203 90-203 213 0 126 85 216 207 216 64 0 116-23 155-68l-75-71c-20 25-47 38-82 38-55 0-93-45-93-113 0-67 38-112 92-112 34 0 61 13 80 37z" fill="#7c3300" opacity="0.98"/>
    <path d="M651 342c-41-45-91-68-150-68-120 0-203 90-203 213 0 126 85 216 207 216 64 0 116-23 155-68l-75-71c-20 25-47 38-82 38-55 0-93-45-93-113 0-67 38-112 92-112 34 0 61 13 80 37z" fill="#ffd543"/>
    <path d="M651 342c-41-45-91-68-150-68-120 0-203 90-203 213 0 126 85 216 207 216 64 0 116-23 155-68l-75-71c-20 25-47 38-82 38-55 0-93-45-93-113 0-67 38-112 92-112 34 0 61 13 80 37z" fill="none" stroke="#7c3300" stroke-width="13" stroke-linejoin="round"/>
  </g>
</svg>
